<svg width="46" height="54" viewBox="0 0 46 54" fill="none" xmlns="http://www.w3.org/2000/svg">
<path d="M45.56 20.68C45.1856 16.7838 43.8086 13.0509 41.5631 9.84484C39.3177 6.6388 36.2803 4.06887 32.7466 2.3853C29.213 0.701737 25.3037 -0.0380894 21.3992 0.237865C17.4948 0.51382 13.7283 1.79615 10.4667 3.95999C7.66451 5.83371 5.31213 8.30478 3.5785 11.1957C1.84488 14.0866 0.773041 17.3256 0.439988 20.68C0.113274 24.0124 0.532452 27.3758 1.66711 30.5261C2.80177 33.6763 4.62345 36.5345 6.99999 38.8933L21.1333 53.0533C21.3812 53.3033 21.6762 53.5017 22.0011 53.637C22.3261 53.7724 22.6746 53.8421 23.0267 53.8421C23.3787 53.8421 23.7272 53.7724 24.0522 53.637C24.3771 53.5017 24.6721 53.3033 24.92 53.0533L39 38.8933C41.3765 36.5345 43.1982 33.6763 44.3329 30.5261C45.4675 27.3758 45.8867 24.0124 45.56 20.68ZM35.2667 35.1333L23 47.4L10.7333 35.1333C8.92556 33.3255 7.54079 31.1395 6.67857 28.7327C5.81634 26.3258 5.49808 23.7578 5.74665 21.2133C5.99684 18.6296 6.81802 16.1337 8.15084 13.9062C9.48366 11.6787 11.2948 9.77521 13.4533 8.33332C16.2825 6.45395 19.6035 5.45144 23 5.45144C26.3965 5.45144 29.7175 6.45395 32.5466 8.33332C34.6986 9.76964 36.5058 11.6647 37.8383 13.8825C39.1708 16.1002 39.9955 18.5856 40.2533 21.16C40.51 23.7131 40.1957 26.2914 39.3333 28.7081C38.4708 31.1248 37.0818 33.3195 35.2667 35.1333ZM23 11C20.6266 11 18.3065 11.7038 16.3331 13.0224C14.3598 14.3409 12.8217 16.2151 11.9134 18.4078C11.0052 20.6005 10.7675 23.0133 11.2306 25.3411C11.6936 27.6688 12.8365 29.807 14.5147 31.4853C16.1929 33.1635 18.3311 34.3064 20.6589 34.7694C22.9867 35.2324 25.3995 34.9948 27.5922 34.0865C29.7849 33.1783 31.659 31.6402 32.9776 29.6668C34.2962 27.6934 35 25.3734 35 23C34.9929 19.8196 33.7264 16.7714 31.4775 14.5225C29.2286 12.2736 26.1804 11.007 23 11ZM23 29.6667C21.6814 29.6667 20.3925 29.2757 19.2962 28.5431C18.1999 27.8106 17.3454 26.7694 16.8408 25.5512C16.3362 24.333 16.2042 22.9926 16.4614 21.6994C16.7187 20.4062 17.3536 19.2183 18.2859 18.2859C19.2183 17.3536 20.4062 16.7187 21.6994 16.4614C22.9926 16.2042 24.333 16.3362 25.5512 16.8408C26.7694 17.3454 27.8106 18.1999 28.5431 19.2962C29.2757 20.3925 29.6667 21.6814 29.6667 23C29.6667 24.7681 28.9643 26.4638 27.714 27.714C26.4638 28.9643 24.7681 29.6667 23 29.6667Z" fill="#65E4A3"/>
</svg>
