<svg width="64" height="64" viewBox="0 0 64 64" fill="none" xmlns="http://www.w3.org/2000/svg">
<path d="M54.56 25.68C54.1856 21.7838 52.8086 18.0509 50.5631 14.8448C48.3177 11.6388 45.2803 9.06887 41.7466 7.3853C38.213 5.70174 34.3037 4.96191 30.3992 5.23787C26.4948 5.51382 22.7283 6.79615 19.4667 8.95999C16.6645 10.8337 14.3121 13.3048 12.5785 16.1957C10.8449 19.0866 9.77304 22.3256 9.43999 25.68C9.11327 29.0124 9.53245 32.3758 10.6671 35.5261C11.8018 38.6763 13.6234 41.5345 16 43.8933L30.1333 58.0533C30.3812 58.3033 30.6762 58.5017 31.0011 58.637C31.3261 58.7724 31.6746 58.8421 32.0267 58.8421C32.3787 58.8421 32.7272 58.7724 33.0522 58.637C33.3771 58.5017 33.6721 58.3033 33.92 58.0533L48 43.8933C50.3765 41.5345 52.1982 38.6763 53.3329 35.5261C54.4675 32.3758 54.8867 29.0124 54.56 25.68ZM44.2667 40.1333L32 52.4L19.7333 40.1333C17.9256 38.3255 16.5408 36.1395 15.6786 33.7327C14.8163 31.3258 14.4981 28.7578 14.7467 26.2133C14.9968 23.6296 15.818 21.1337 17.1508 18.9062C18.4837 16.6787 20.2948 14.7752 22.4533 13.3333C25.2825 11.454 28.6035 10.4514 32 10.4514C35.3965 10.4514 38.7175 11.454 41.5466 13.3333C43.6986 14.7696 45.5058 16.6647 46.8383 18.8825C48.1708 21.1002 48.9955 23.5856 49.2533 26.16C49.51 28.7131 49.1957 31.2914 48.3333 33.7081C47.4708 36.1248 46.0818 38.3195 44.2667 40.1333ZM32 16C29.6266 16 27.3065 16.7038 25.3331 18.0224C23.3598 19.3409 21.8217 21.2151 20.9134 23.4078C20.0052 25.6005 19.7675 28.0133 20.2306 30.3411C20.6936 32.6688 21.8365 34.807 23.5147 36.4853C25.1929 38.1635 27.3311 39.3064 29.6589 39.7694C31.9867 40.2324 34.3995 39.9948 36.5922 39.0865C38.7849 38.1783 40.659 36.6402 41.9776 34.6668C43.2962 32.6934 44 30.3734 44 28C43.9929 24.8196 42.7264 21.7714 40.4775 19.5225C38.2286 17.2736 35.1804 16.007 32 16ZM32 34.6667C30.6814 34.6667 29.3925 34.2757 28.2962 33.5431C27.1999 32.8106 26.3454 31.7694 25.8408 30.5512C25.3362 29.333 25.2042 27.9926 25.4614 26.6994C25.7187 25.4062 26.3536 24.2183 27.2859 23.2859C28.2183 22.3536 29.4062 21.7187 30.6994 21.4614C31.9926 21.2042 33.333 21.3362 34.5512 21.8408C35.7694 22.3454 36.8106 23.1999 37.5431 24.2962C38.2757 25.3925 38.6667 26.6814 38.6667 28C38.6667 29.7681 37.9643 31.4638 36.714 32.714C35.4638 33.9643 33.7681 34.6667 32 34.6667Z" fill="#65E4A3"/>
</svg>
