<svg width="121" height="34" viewBox="0 0 121 34" fill="none" xmlns="http://www.w3.org/2000/svg">
<path d="M0 15.8779H16.9343C21.8914 15.8779 25.91 19.8965 25.91 24.8536C25.91 29.8108 21.8914 33.8293 16.9343 33.8293H0V15.8779Z" fill="#0A2640"/>
<path d="M0 0.170532H11.2926C15.0104 0.170532 18.0243 3.18445 18.0243 6.9023C18.0243 10.6202 15.0104 13.6341 11.2926 13.6341H0V0.170532Z" fill="#0A2640"/>
<path d="M37.9966 29V7.4099H47.0963C48.526 7.4099 49.7431 7.66106 50.7478 8.16338C51.7717 8.64638 52.5542 9.3419 53.0951 10.2499C53.6554 11.1387 53.9356 12.2206 53.9356 13.4957C53.9356 14.481 53.6651 15.4084 53.1241 16.2778C52.6025 17.1279 51.7621 17.833 50.6029 18.3933V16.5676C51.6655 16.9733 52.5059 17.4756 53.1241 18.0745C53.7424 18.6735 54.1771 19.34 54.4282 20.0742C54.6794 20.8083 54.805 21.5811 54.805 22.3926C54.805 24.4598 54.1191 26.0827 52.7474 27.2612C51.395 28.4204 49.5113 29 47.0963 29H37.9966ZM41.9378 25.5224H47.502C48.526 25.5224 49.3374 25.2423 49.9363 24.682C50.5546 24.1024 50.8637 23.3392 50.8637 22.3926C50.8637 21.4459 50.5546 20.6827 49.9363 20.1031C49.3374 19.5235 48.526 19.2337 47.502 19.2337H41.9378V25.5224ZM41.9378 15.7851H47.2991C48.1106 15.7851 48.7578 15.5533 49.2408 15.0896C49.7238 14.6066 49.9653 13.9884 49.9653 13.2349C49.9653 12.4814 49.7238 11.8825 49.2408 11.4381C48.7578 10.9938 48.1106 10.7716 47.2991 10.7716H41.9378V15.7851ZM65.4234 29.3478C63.8778 29.3478 62.4675 28.9903 61.1923 28.2755C59.9365 27.5607 58.9319 26.585 58.1784 25.3485C57.4443 24.112 57.0772 22.7017 57.0772 21.1174C57.0772 19.5332 57.4443 18.1228 58.1784 16.8864C58.9319 15.6499 59.9365 14.6742 61.1923 13.9594C62.4481 13.2445 63.8585 12.8871 65.4234 12.8871C66.969 12.8871 68.3697 13.2445 69.6255 13.9594C70.8813 14.6742 71.8763 15.6499 72.6105 16.8864C73.3639 18.1035 73.7407 19.5139 73.7407 21.1174C73.7407 22.7017 73.3639 24.112 72.6105 25.3485C71.857 26.585 70.8523 27.5607 69.5965 28.2755C68.3407 28.9903 66.9497 29.3478 65.4234 29.3478ZM65.4234 25.8702C66.2735 25.8702 67.0173 25.6673 67.6549 25.2616C68.3118 24.8559 68.8237 24.2956 69.1908 23.5807C69.5772 22.8466 69.7704 22.0255 69.7704 21.1174C69.7704 20.1901 69.5772 19.3786 69.1908 18.6831C68.8237 17.9683 68.3118 17.408 67.6549 17.0023C67.0173 16.5772 66.2735 16.3647 65.4234 16.3647C64.554 16.3647 63.7909 16.5772 63.134 17.0023C62.4771 17.408 61.9555 17.9683 61.5691 18.6831C61.202 19.3786 61.0185 20.1901 61.0185 21.1174C61.0185 22.0255 61.202 22.8466 61.5691 23.5807C61.9555 24.2956 62.4771 24.8559 63.134 25.2616C63.7909 25.6673 64.554 25.8702 65.4234 25.8702ZM76.6197 29V7.06214H80.416V29H76.6197ZM91.2532 29.3478C89.7269 29.3478 88.3649 28.9903 87.167 28.2755C85.9692 27.5413 85.0225 26.5464 84.327 25.2906C83.6315 24.0348 83.2837 22.6437 83.2837 21.1174C83.2837 19.5718 83.6315 18.1808 84.327 16.9443C85.0225 15.7078 85.9692 14.7225 87.167 13.9884C88.3842 13.2542 89.7366 12.8871 91.2242 12.8871C92.4221 12.8871 93.4847 13.1286 94.412 13.6116C95.3587 14.0753 96.1025 14.7322 96.6435 15.5823L96.0639 16.3647V7.06214H99.8603V29H96.2667V25.9571L96.6725 26.7106C96.1315 27.5607 95.378 28.2175 94.412 28.6812C93.446 29.1256 92.3931 29.3478 91.2532 29.3478ZM91.6589 25.8702C92.5283 25.8702 93.2915 25.6673 93.9483 25.2616C94.6052 24.8559 95.1172 24.2956 95.4843 23.5807C95.8707 22.8659 96.0639 22.0448 96.0639 21.1174C96.0639 20.2094 95.8707 19.398 95.4843 18.6831C95.1172 17.949 94.6052 17.379 93.9483 16.9733C93.2915 16.5676 92.5283 16.3647 91.6589 16.3647C90.8088 16.3647 90.0457 16.5772 89.3695 17.0023C88.6933 17.408 88.162 17.9683 87.7756 18.6831C87.4085 19.3786 87.225 20.1901 87.225 21.1174C87.225 22.0448 87.4085 22.8659 87.7756 23.5807C88.162 24.2956 88.6933 24.8559 89.3695 25.2616C90.0457 25.6673 90.8088 25.8702 91.6589 25.8702ZM111.101 29.3478C109.555 29.3478 108.145 28.9903 106.87 28.2755C105.614 27.5607 104.609 26.585 103.856 25.3485C103.122 24.112 102.755 22.7017 102.755 21.1174C102.755 19.5332 103.122 18.1228 103.856 16.8864C104.609 15.6499 105.614 14.6742 106.87 13.9594C108.126 13.2445 109.536 12.8871 111.101 12.8871C112.646 12.8871 114.047 13.2445 115.303 13.9594C116.559 14.6742 117.554 15.6499 118.288 16.8864C119.041 18.1035 119.418 19.5139 119.418 21.1174C119.418 22.7017 119.041 24.112 118.288 25.3485C117.534 26.585 116.53 27.5607 115.274 28.2755C114.018 28.9903 112.627 29.3478 111.101 29.3478ZM111.101 25.8702C111.951 25.8702 112.695 25.6673 113.332 25.2616C113.989 24.8559 114.501 24.2956 114.868 23.5807C115.255 22.8466 115.448 22.0255 115.448 21.1174C115.448 20.1901 115.255 19.3786 114.868 18.6831C114.501 17.9683 113.989 17.408 113.332 17.0023C112.695 16.5772 111.951 16.3647 111.101 16.3647C110.231 16.3647 109.468 16.5772 108.811 17.0023C108.155 17.408 107.633 17.9683 107.247 18.6831C106.879 19.3786 106.696 20.1901 106.696 21.1174C106.696 22.0255 106.879 22.8466 107.247 23.5807C107.633 24.2956 108.155 24.8559 108.811 25.2616C109.468 25.6673 110.231 25.8702 111.101 25.8702Z" fill="#0A2640"/>
</svg>
