<svg width="121" height="34" viewBox="0 0 121 34" fill="none" xmlns="http://www.w3.org/2000/svg">
<path d="M0 15.8948H17.0678C21.9511 15.8948 25.9099 19.8535 25.9099 24.7369C25.9099 29.6202 21.9511 33.579 17.0678 33.579H0V15.8948Z" fill="#65E4A3"/>
<path d="M0 0.421143H11.3927C15.0552 0.421143 18.0243 3.3902 18.0243 7.05272C18.0243 10.7152 15.0552 13.6843 11.3927 13.6843H0V0.421143Z" fill="#65E4A3"/>
<path d="M37.9964 29V7.4099H47.0962C48.5258 7.4099 49.743 7.66106 50.7476 8.16338C51.7716 8.64638 52.5541 9.3419 53.095 10.2499C53.6553 11.1387 53.9354 12.2206 53.9354 13.4957C53.9354 14.481 53.665 15.4084 53.124 16.2778C52.6024 17.1279 51.7619 17.833 50.6027 18.3933V16.5676C51.6653 16.9733 52.5058 17.4756 53.124 18.0745C53.7422 18.6735 54.1769 19.34 54.4281 20.0742C54.6793 20.8083 54.8048 21.5811 54.8048 22.3926C54.8048 24.4598 54.119 26.0827 52.7473 27.2612C51.3949 28.4204 49.5112 29 47.0962 29H37.9964ZM41.9377 25.5224H47.5019C48.5258 25.5224 49.3373 25.2423 49.9362 24.682C50.5544 24.1024 50.8636 23.3392 50.8636 22.3926C50.8636 21.4459 50.5544 20.6827 49.9362 20.1031C49.3373 19.5235 48.5258 19.2337 47.5019 19.2337H41.9377V25.5224ZM41.9377 15.7851H47.299C48.1105 15.7851 48.7577 15.5533 49.2407 15.0896C49.7237 14.6066 49.9652 13.9884 49.9652 13.2349C49.9652 12.4814 49.7237 11.8825 49.2407 11.4381C48.7577 10.9938 48.1105 10.7716 47.299 10.7716H41.9377V15.7851ZM65.4233 29.3478C63.8777 29.3478 62.4673 28.9903 61.1922 28.2755C59.9364 27.5607 58.9318 26.585 58.1783 25.3485C57.4441 24.112 57.0771 22.7017 57.0771 21.1174C57.0771 19.5332 57.4441 18.1228 58.1783 16.8864C58.9318 15.6499 59.9364 14.6742 61.1922 13.9594C62.448 13.2445 63.8584 12.8871 65.4233 12.8871C66.9689 12.8871 68.3696 13.2445 69.6254 13.9594C70.8812 14.6742 71.8762 15.6499 72.6103 16.8864C73.3638 18.1035 73.7406 19.5139 73.7406 21.1174C73.7406 22.7017 73.3638 24.112 72.6103 25.3485C71.8569 26.585 70.8522 27.5607 69.5964 28.2755C68.3406 28.9903 66.9496 29.3478 65.4233 29.3478ZM65.4233 25.8702C66.2734 25.8702 67.0172 25.6673 67.6548 25.2616C68.3116 24.8559 68.8236 24.2956 69.1907 23.5807C69.5771 22.8466 69.7703 22.0255 69.7703 21.1174C69.7703 20.1901 69.5771 19.3786 69.1907 18.6831C68.8236 17.9683 68.3116 17.408 67.6548 17.0023C67.0172 16.5772 66.2734 16.3647 65.4233 16.3647C64.5539 16.3647 63.7908 16.5772 63.1339 17.0023C62.477 17.408 61.9554 17.9683 61.569 18.6831C61.2019 19.3786 61.0183 20.1901 61.0183 21.1174C61.0183 22.0255 61.2019 22.8466 61.569 23.5807C61.9554 24.2956 62.477 24.8559 63.1339 25.2616C63.7908 25.6673 64.5539 25.8702 65.4233 25.8702ZM76.6195 29V7.06214H80.4159V29H76.6195ZM91.2531 29.3478C89.7268 29.3478 88.3647 28.9903 87.1669 28.2755C85.9691 27.5413 85.0224 26.5464 84.3269 25.2906C83.6313 24.0348 83.2836 22.6437 83.2836 21.1174C83.2836 19.5718 83.6313 18.1808 84.3269 16.9443C85.0224 15.7078 85.9691 14.7225 87.1669 13.9884C88.3841 13.2542 89.7365 12.8871 91.2241 12.8871C92.4219 12.8871 93.4845 13.1286 94.4119 13.6116C95.3586 14.0753 96.1024 14.7322 96.6434 15.5823L96.0638 16.3647V7.06214H99.8601V29H96.2666V25.9571L96.6723 26.7106C96.1314 27.5607 95.3779 28.2175 94.4119 28.6812C93.4459 29.1256 92.393 29.3478 91.2531 29.3478ZM91.6588 25.8702C92.5282 25.8702 93.2913 25.6673 93.9482 25.2616C94.6051 24.8559 95.1171 24.2956 95.4842 23.5807C95.8706 22.8659 96.0638 22.0448 96.0638 21.1174C96.0638 20.2094 95.8706 19.398 95.4842 18.6831C95.1171 17.949 94.6051 17.379 93.9482 16.9733C93.2913 16.5676 92.5282 16.3647 91.6588 16.3647C90.8087 16.3647 90.0456 16.5772 89.3694 17.0023C88.6932 17.408 88.1619 17.9683 87.7755 18.6831C87.4084 19.3786 87.2249 20.1901 87.2249 21.1174C87.2249 22.0448 87.4084 22.8659 87.7755 23.5807C88.1619 24.2956 88.6932 24.8559 89.3694 25.2616C90.0456 25.6673 90.8087 25.8702 91.6588 25.8702ZM111.101 29.3478C109.555 29.3478 108.145 28.9903 106.87 28.2755C105.614 27.5607 104.609 26.585 103.856 25.3485C103.122 24.112 102.755 22.7017 102.755 21.1174C102.755 19.5332 103.122 18.1228 103.856 16.8864C104.609 15.6499 105.614 14.6742 106.87 13.9594C108.125 13.2445 109.536 12.8871 111.101 12.8871C112.646 12.8871 114.047 13.2445 115.303 13.9594C116.559 14.6742 117.554 15.6499 118.288 16.8864C119.041 18.1035 119.418 19.5139 119.418 21.1174C119.418 22.7017 119.041 24.112 118.288 25.3485C117.534 26.585 116.53 27.5607 115.274 28.2755C114.018 28.9903 112.627 29.3478 111.101 29.3478ZM111.101 25.8702C111.951 25.8702 112.695 25.6673 113.332 25.2616C113.989 24.8559 114.501 24.2956 114.868 23.5807C115.255 22.8466 115.448 22.0255 115.448 21.1174C115.448 20.1901 115.255 19.3786 114.868 18.6831C114.501 17.9683 113.989 17.408 113.332 17.0023C112.695 16.5772 111.951 16.3647 111.101 16.3647C110.231 16.3647 109.468 16.5772 108.811 17.0023C108.154 17.408 107.633 17.9683 107.246 18.6831C106.879 19.3786 106.696 20.1901 106.696 21.1174C106.696 22.0255 106.879 22.8466 107.246 23.5807C107.633 24.2956 108.154 24.8559 108.811 25.2616C109.468 25.6673 110.231 25.8702 111.101 25.8702Z" fill="white"/>
</svg>
